# xmcd
#
# Track frame offsets:
# 150
# 8484
# 22549
# 44764
# 75005
# 90718
# 107844
# 127557
# 148983
# 162786
# 175017
# 208786
# 226677
# 249428
# 279535
#
# Disc length: 3935 seconds
#
#
# Revision: 1
# Processed by: cddbd v1.5PL3 Copyright (c) Steve Scherf et al.
# Submitted via: FreeRIP 2.51 
#
DISCID=aa0f5d0f
DTITLE=Corey Harris - Mississippi To Mali
DYEAR=2003
DGENRE=Blues
TTITLE0=Coahoma
TTITLE1=Big Road Blues
TTITLE2=Special Rider Blues
TTITLE3=Tamalah
TTITLE4=Back Atcha
TTITLE5=Rokie
TTITLE6=La Chanson Des Bozos
TTITLE7=Mr. Turner
TTITLE8=Cypress Grove
TTITLE9=Station Blues
TTITLE10=44 Blues
TTITLE11=Njarka
TTITLE12=Charlene
TTITLE13=Catfish Blues
TTITLE14=dark Was The Night, Cold Was The Ground
EXTD=
EXTT0=
EXTT1=
EXTT2=
EXTT3=
EXTT4=
EXTT5=
EXTT6=
EXTT7=
EXTT8=
EXTT9=
EXTT10=
EXTT11=
EXTT12=
EXTT13=
EXTT14=
PLAYORDER=
